<?xml version="1.0" encoding="utf-8"?>
<!-- Generator: Adobe Illustrator 16.0.0, SVG Export Plug-In . SVG Version: 6.00 Build 0)  -->
<!DOCTYPE svg PUBLIC "-//W3C//DTD SVG 1.1//EN" "http://www.w3.org/Graphics/SVG/1.1/DTD/svg11.dtd">
<svg version="1.1" id="Capa_1" xmlns="http://www.w3.org/2000/svg" xmlns:xlink="http://www.w3.org/1999/xlink" x="0px" y="0px"
	 width="800px" height="800px" viewBox="0 0 800 800" enable-background="new 0 0 800 800" xml:space="preserve">
<g>
	<path fill="#282561" d="M267.44,492.514c0-10.718-7.436-17.107-20.556-17.107c-5.358,0-8.986,0.528-10.884,1.034v34.382
		c2.247,0.507,5.009,0.676,8.817,0.676C258.802,511.498,267.44,504.433,267.44,492.514z"/>
	<path fill="#282561" d="M348.659,475.766c-5.875,0-9.671,0.508-11.918,1.034v76.147c2.248,0.527,5.875,0.527,9.155,0.527
		c23.835,0.17,39.381-12.951,39.381-40.753C385.445,488.548,371.279,475.766,348.659,475.766z"/>
	<path fill="#282561" d="M499.559,77.358H240.388c-37.863,0-68.679,30.838-68.679,68.679v253.96h-6.708
		c-15.282,0-27.675,12.382-27.675,27.677v167.837c0,15.294,12.391,27.674,27.675,27.674h6.708v30.775
		c0,37.882,30.816,68.679,68.679,68.679h353.628c37.839,0,68.658-30.798,68.658-68.679V239.903L499.559,77.358z M209.929,457.963
		c8.11-1.37,19.511-2.403,35.572-2.403c16.232,0,27.801,3.1,35.574,9.322c7.425,5.864,12.437,15.546,12.437,26.938
		c0,11.389-3.797,21.072-10.706,27.632c-8.985,8.458-22.274,12.255-37.82,12.255c-3.459,0-6.561-0.17-8.986-0.508v41.617h-26.071
		V457.963z M594.016,680.58H240.388c-14.661,0-26.599-11.939-26.599-26.619v-30.775l329.654-0.001
		c15.284,0,27.675-12.38,27.675-27.673V427.674c0-15.294-12.391-27.676-27.675-27.676H213.789v-253.96
		c0-14.64,11.94-26.578,26.599-26.578l243.436-0.254v89.982c0,26.282,21.326,47.629,47.628,47.629l88.148-0.252l0.993,397.396
		C620.592,668.642,608.674,680.58,594.016,680.58z M310.322,572.289V457.963c9.67-1.539,22.274-2.403,35.573-2.403
		c22.105,0,36.439,3.966,47.67,12.423c12.086,8.986,19.679,23.311,19.679,43.872c0,22.276-8.11,37.654-19.344,47.144
		c-12.256,10.188-30.911,15.019-53.702,15.019C326.552,574.017,316.882,573.153,310.322,572.289z M498.801,504.601v21.41h-41.797
		v46.806h-26.419V456.424h71.147v21.578h-44.729v26.599H498.801z"/>
</g>
</svg>
